<svg xmlns="http://www.w3.org/2000/svg" data-name="empty basket" viewBox="0 0 1000 1000"><path fill="#cecccd" d="M775.735,366.6144c-6.66042-.6257-43.53122-1.3793-52.13062-2.2078,3.33562-39.3912.3692-177.3268-91.8847-207.3587-22.6446-7.3716-95.743-14.2093-123.54039-9.1893-43.2664,7.8135-85.39829,41.0556-106.51,73.7-33.6887,52.0918-35.2496,115.5285-55.1286,161.3205-26.37,8.4393-58.089,18.6768-77.168,24.8435a21.66248,21.66248,0,0,0-14.8584,23.0302c3.15071,28.1793,8.0654,84.2424,2.5539,122.2351-7.6178,52.5677-25.4707,81.0229-43.23,131.095q-13.0476,36.814-26.10919,73.6281a15.20215,15.20215,0,0,0,9.5134,19.5034c91.20439,30.4402,184.41079,59.671,280.37829,58.9259,45.71631-.3552,91.068-7.543,136.22349-14.7122q46.7025-7.4169,93.4236-14.8244c16.0675-2.5517,32.3716-5.1823,47.6387-10.5535a14.08086,14.08086,0,0,0,8.0377-19.1481c-6.9845-15.2353-10.9373-31.891-14.0728-48.4395-20.2831-106.9675-8.2329-195.9989,31.3985-297.4048,4.899-12.5422,10.2908-25.1808,13.7057-38.1497A20.96089,20.96089,0,0,0,775.735,366.6144Zm-367.91571-.718c2.5153-6.1115,3.3588-36.1903,5.57-43.7178,9.03-30.6999,17.3215-62.7043,36.49-88.3299,32.2348-43.0938,89.1813-41.718,120.43-40.69,28.063.9231,58.34009,9.1981,79.3,27.88,25.9076,23.0918,11.3164,95.5768,22.3963,138.3843C640.13188,356.3601,479.10519,351.7796,407.81929,365.8964Z"/><path fill="#fff" stroke="#231f20" stroke-linecap="round" stroke-linejoin="round" stroke-width="3" d="M391.77,692.6172a30.047,30.047,0,0,0-5.51091-4.2922c-3.201-1.8563-6.7254,1.1821-5.7585,4.7538,3.2661,12.0647,10.69941,10.476,15.6887,17.0998,1.6908,2.2447-.2227,4.5903-3.0281,3.7048-4.5916-1.4491-19.2649-4.0794-21.762-19.1988,1.6769,11.7615,9.7613,14.2613,14.3469,23.677.62891,1.2912.0677,3.281-1.15109,3.7459-3.23461,1.2337-21.46841-9.9763-23.63541-22.711,1.9272,11.0318,8.8603,13.1613,13.0237,21.0958.782,1.4904,1.1751,3.7611-.3879,4.484-2.9649,1.3711-19.6392-11.8398-21.5705-21.2966,1.7272,9.4245,11.5567,15.8984,9.2705,16.8126-6.7261,2.6894-40.8153-43.0176-17.5303-61.7509,8.45191-6.7997,20.0614-.7738,26.3947,7.3513,6.4885,8.3242,18.28621,9.3696,25.3281,17.6875,3.0632,3.6183,7.6499,14.6683,1.88711,15.5046C395.05979,699.6208,393.67569,694.4704,391.77,692.6172Z"/><path fill="#f45d4a" d="M605.99528,580.3952c-2.8015-12.2739-33.28919-48.3811-43.69149-55.4726s-15.3725-12.4669-27.2031-16.772a81.70347,81.70347,0,0,0-36.3124-4.3667c-10.4076,1.0263-19.9952,2.8824-29.3017,7.6531q-29.2608,14.99955-58.5214,29.9991c-11.471,5.8801-23.1009,11.8187-35.6883,14.5969-13.2013,2.9138-27.4215,2.3596-39.4837,8.4647-14.0628,7.1176-24.6696,26.3471-26.8729,41.9537s1.1999,31.4917,6.1504,46.4555c3.10831,9.3957,3.3906,22.8964,12.0209,27.7398,9.1272,5.1224,26.4568-4.3211,36.7108-6.4191,5.6218-1.1503,11.45861-2.396,16.0064-5.8952s7.3646-9.9633,4.8841-15.1377c-1.4095-2.9401-4.1941-4.9275-6.4298-7.3007-9.4397-10.0202-7.9637-27.2554,1.0511-37.6595a39.07922,39.07922,0,0,1,16.8713-11.0914c16.0928,5.3168,42.1736,11.7329,42.1736,11.7329l115.6522-10.8482,41.16209-12.6775-6.99409-4.0668Z"/><path fill="none" stroke="#231f20" stroke-linecap="round" stroke-linejoin="round" stroke-width="3" d="M454.23709 529.1757c2.9514.6422 5.1288 3.3039 6.0587 6.1776s1.5951 10.0068-.1533 14.2202c-1.4717 3.5467-6.8092 5.9206-10.2292 5.5048M411.46289 554.4464a13.48018 13.48018 0 0014.6787 10.5128M560.846 556.1831c15.80619 10.2263 30.35909 23.0077 35.76258 41.8447M527.62349 549.7738c7.9577-9.0899 20.8488-5.2723 27.78151 3.0075M350.68149 640.2762c.2418 2.9085 3.496 4.2925 6.302 5.0949a16.70027 16.70027 0 007.5804.3899c2.8963-.3595 6.8754-1.3864 10.0302.0684a13.08936 13.08936 0 015.706 5.6115M397.70309 597.2859s3.9681-11.1105 18.5488-5.8724"/><g data-name="shopping cart"><path fill="#fff" stroke="#231f20" stroke-linecap="round" stroke-linejoin="round" stroke-width="3" d="M397.83139,805.4368c-1.8,1.34-6.89,1.4299-9.24-3.35-1.57-3.2-1.3499-9.26,1.0101-11.57,2.6099-2.58,5.2999-1.5901,7.7-.92,1.67.5199,2.93,2.61,3.5,4.66C401.79149,797.8168,400.15139,803.7068,397.83139,805.4368Z"/><path fill="none" stroke="#231f20" stroke-linecap="round" stroke-linejoin="round" stroke-width="3" d="M397.30139,789.5968c-4.45-10.29-5.5-20-3.2-24.49"/><path fill="#fff" stroke="#231f20" stroke-linecap="round" stroke-linejoin="round" stroke-width="3" d="M594.56748,836.5442c1.7548-8.5696,13.4012-13.221,20.5766-8.2451,7.1874,4.9879,6.935,17.4997-.4447,22.1992a13.35166,13.35166,0,0,1-19.7113-15.8411c-.2884.0721-.3725.012-.3485-.0721a3.00411,3.00411,0,0,0,.3485.0721c.1563-.4087-.024-.4087-.1802-.2885"/><path fill="#231f20" stroke="#231f20" stroke-linecap="round" stroke-linejoin="round" stroke-width="3" d="M594.80788 834.3687a.32135.32135 0 00-.1683.2163c-11.983-2.2956-19.579-15.0838-22.46349-26.9827-2.8967-12.0311.06-24.8794 5.7931-35.8408s14.0743-20.3002 22.57181-29.2905c6.80268-7.1873 19.50688-17.8963 27.88418-23.1847C546.01059 791.8694 591.46659 830.0178 594.80788 834.3687zM486.17969 837.3494c-8.5936-10.8292-20.9972-27.9803-20.3482-46.4055.7451-21.5141 30.1197-40.0234 51.129-48.9897C513.60719 743.6369 444.76209 778.9489 486.17969 837.3494z"/><path fill="#fff" stroke="#231f20" stroke-linecap="round" stroke-linejoin="round" stroke-width="3" d="M510.314,865.6423a13.45134,13.45134,0,0,1-16.45411,4.2427c-5.2043-2.5-7.6802-8.5816-6.9951-14.1344a15.12868,15.12868,0,0,1,5.9014-9.9999,14.14393,14.14393,0,0,1,18.9901,5.8653C513.63119,855.4381,512.85,860.9188,510.314,865.6423Z"/><path fill="none" stroke="#231f20" stroke-linecap="round" stroke-linejoin="round" stroke-width="3" d="M486.19169 837.3735c2.7885 3.5216 5.1682 6.3701 6.5745 8.3773q-3.67785-4.25475-6.5745-8.3773a.0373.0373 0 01-.012-.0241M524.37479 780.3621c-24.6502-9.313-50.6131-18.3575-54.4991-19.8875-22.5585-8.8819-47.8854-4.2982-71.4604 1.3584-3.57229.8571-6.1035 4.3021-3.4278 6.6198 6.1706 5.3452 65.3356 42.1263 76.3202 47.1286 10.1265 4.6114 93.154-11.2868 99.7414-14.0323-.3449-2.6608-18.2328-10.2596-38.9095-18.2257M493.83039 640.6063c-.3771 21.2671-1.6862 68.9658 2.7028 89.7785"/><path fill="#fff" stroke="#231f20" stroke-linecap="round" stroke-linejoin="round" stroke-width="3" d="M650.76848,629.0473c-5.6249,24.9756-16.0213,69.1336-22.3433,90.239-.4447.9856-5.14418,2.488-12.3917,4.2428v.0119c-29.038,7.0552-98.94079,18.3532-98.94079,18.3532-1.7066-15.12-.2283-33.0645,1.238-50.9848a421.249,421.249,0,0,0,.9255-50.6003c-.1683-3.245-.3967-6.2378-.69719-8.87,8.28119-2.1874,16.43009-3.9182,24.45879-5.3845,29.687-5.4327,57.93179-7.2235,86.59721-14.6152C661.141,605.0573,656.99438,596.1272,650.76848,629.0473Z"/><path fill="none" stroke="#231f20" stroke-linecap="round" stroke-linejoin="round" stroke-width="3" d="M400.69139 680.0282l116.4013 61.866c-1.7066-15.12-.2283-33.0645 1.238-50.9848 1.46631-17.8243 1.923-44.4345.22831-59.4703L397.70309 597.2859c-.325 18.3299-6.7138 48.1006-5.662 69.2996A16.21043 16.21043 0 00400.69139 680.0282zM619.98408 690.9502q-1.96512 16.22745-3.9462 32.5857M629.61268 611.4423c-2.8014 23.1328-5.5642 45.9461-8.3358 68.8325M589.97579 619.0074c-.7713 36.0446-6.3849 74.8864-4.24979 110.876M547.35259 625.2859c2.0682 33.6501-2.0683 76.3277 0 109.9778M530.70939 657.4121c56.35061-3.1176 102.58679-22.3952 120.06-28.3597M518.55729 688.1449c41.8123-1.1662 87.27249-15.6158 124.20349-24.6123M516.57569 719.2863c38.7662-2.2225 80.33279-12.3431 118.62509-25.1053"/><path fill="none" stroke="#231f20" stroke-linecap="round" stroke-linejoin="round" stroke-width="3" d="M415.94409,603.7137a143.51759,143.51759,0,0,0-5.3756,25.3383l-1.0767,10.3159c-1.2414,15.0376-1.212,30.4122-1.30279,44.5404"/><line x1="519.643" x2="396.319" y1="656.271" y2="614.766" fill="none" stroke="#231f20" stroke-linecap="round" stroke-linejoin="round" stroke-width="3"/><line x1="518.557" x2="393.565" y1="688.145" y2="637.609" fill="none" stroke="#231f20" stroke-linecap="round" stroke-linejoin="round" stroke-width="3"/><line x1="391.938" x2="516.576" y1="659.823" y2="719.286" fill="none" stroke="#231f20" stroke-linecap="round" stroke-linejoin="round" stroke-width="3"/><path fill="none" stroke="#231f20" stroke-linecap="round" stroke-linejoin="round" stroke-width="3" d="M393.25339 794.5277a5.08068 5.08068 0 000 6.3387M507.71759 857.6392s-1.1024 8.8191-12.1262 6.2468M605.574 832.5148s9.17748-1.4978 8.25888 7.6109"/></g><g data-name="right foot"><path fill="#231f20" stroke="#231f20" stroke-miterlimit="10" stroke-width="3" d="M703.67638,709.0461c-11.3099,2.4399-38.5691-13.87-50.8887-23.389,3.9062-5.3726,1.9111-14.0263.9976-15.6969-1.0456-1.9231-4.62728-7.9807-9.3268-7.548.27652-7.3797,1.4303-14.7474,2.7764-17.7882,15.5046-3.8821,38.6654-8.7739,52.8238-8.2571,8.7499.3125,2.0192,12.3917,2.0192,18.2449-.0121,11.2138,5.5167,20.2882,8.7499,30.7087C713.56808,694.1785,713.43588,706.9427,703.67638,709.0461Z"/><path fill="none" stroke="#f45d4a" stroke-linecap="round" stroke-miterlimit="10" stroke-width="3" d="M696.34248 661.084c6.1653-.9966 13.387-1.4605 19.6627 4.9577M700.08358 670.6713c4.6648-1.8084 10.4727 1.0784 12.2766 5.1265"/><path fill="#fff" stroke="#231f20" stroke-miterlimit="10" stroke-width="3" d="M652.78768,685.6571a31.93,31.93,0,0,1-5.9133-5.3966c-2.11538-3.137-2.6151-12.1662-2.3387-19.5098,4.6995-.4327,11.6004,5.291,12.5559,9.3697C658.06028,674.256,656.69388,680.2845,652.78768,685.6571Z"/></g><g data-name="left foot"><path fill="#231f20" stroke="#231f20" stroke-linecap="round" stroke-linejoin="round" stroke-width="3" d="M483.68459,746.2224c-5.2079,1.3572-11.4114,4.5876-14.2017,9.1672a22.17158,22.17158,0,0,0-2.5727,15.9016c-.5388.2873-1.0776.5746-1.6044.8636q-20.0793,10.66575-40.1364,21.3466c-3.7306,1.9807-7.8233,4.0313-11.9896,3.2789-5.99-1.0733-10.9221-8.2847-8.8425-14.0097,7.1632-19.7386,22.1663-45.9221,25.1093-62.7178.6607-3.7786,5.3399-5.5998,9.154-5.9539,3.8125-.3423,7.5981.6957,11.27641,1.7184,9.04819,2.5296,28.64339,5.5929,32.49489,15.6123C483.86479,735.3456,484.25319,740.7916,483.68459,746.2224Z"/><path fill="none" stroke="#f45d4a" stroke-linecap="round" stroke-linejoin="round" stroke-width="3" d="M407.39059 757.2587c6.3247-1.1071 9.3366-.8469 15.39041 2.4104M412.02789 750.2131c6.3247-1.1071 9.3367-.8469 15.3905 2.4104"/><path fill="#fff" stroke="#231f20" stroke-linecap="round" stroke-linejoin="round" stroke-width="3" d="M477.71259,763.3143c-2.8755,3.4747-6.8168,5.8261-10.8024,7.9769-3.6565-5.0285-4.7811-13.9865-1.10319-18.6677,3.31309-4.2168,11.80359-6.9704,17.87759-6.4011C482.99379,752.8498,480.89559,759.4707,477.71259,763.3143Z"/></g><g><path fill="#fff" stroke="#231f20" stroke-linecap="round" stroke-linejoin="round" stroke-width="3" d="M245.74249,791.477c-27.95,0-34.0999-23.57-34.0999-23.57C230.03259,773.527,234.90259,775.587,245.74249,791.477Z"/><path fill="#fff" stroke="#231f20" stroke-linecap="round" stroke-linejoin="round" stroke-width="3" d="M259.99249,821.147c-11.42,5.6601-25.98-.76-31.94-12.01-4.12-7.7699.8-13.06,2.31-14.05,4.43-2.9099,10.2901-2.11,15.38-3.61,5.64-10.75,13.71-9.75,19.01-7.14a11.36736,11.36736,0,0,1,4.35,4.2201C276.04249,799.2371,271.41249,815.4971,259.99249,821.147Z"/><path fill="none" stroke="#231f20" stroke-linecap="round" stroke-linejoin="round" stroke-width="3" d="M245.74249 791.4771c.69-4.73.62-13.4 7.85-15.38M256.582 799.4613c-.52631 4.8512 6.55969 5.5621 7.52869.9744.6689-3.1663-.7674-7.2405-4.0015-7.1237"/></g><g><path fill="none" stroke="#231f20" stroke-linecap="round" stroke-linejoin="round" stroke-width="3" d="M644.39308 829.3507c3.7551 3.2055 11.6227 3.2192 15.9974.9306s8.2386-5.6739 12.9868-7.027c8.9278-2.5443 19.055 2.6193 27.54572-1.134 5.39-2.3827 9.27238-8.0871 15.12118-8.8088q7.46565 15.3291 14.9313 30.6583c-3.8661-.7421-7.8146-1.4872-11.7158-.9597-6.9056.9336-13.2195 5.7865-20.1368 4.9444-8.7291-1.0626-12.3873-11.7359-21.8747-5.3203-4.4459 3.0064-6.3961 8.4752-8.075 13.573-4.2024-1.8798-5.906-6.8407-8.9574-10.2878-2.3324-2.6348-5.4849-4.3901-8.1112-6.732-3.1194-2.7817-5.43458-6.3318-7.7115-9.8367M679.02608 835.7001c6.88992-.0256 10.4321 7.4378 10.4321 7.4378"/></g><g><path fill="#fff" stroke="#231f20" stroke-linecap="round" stroke-linejoin="round" stroke-width="3" d="M709.19108,557.1128a60.20606,60.20606,0,0,0-20.0415-15.2769c-8.7138-4.1465-37.9803-14.9277-75.059,15.805-9.5551,7.9206-19.3987,15.4325-28.20869,24.2304-6.5504-5.9494-25.216-19.2424-50.5882-16.9107-22.7881,2.1033-36.0211,15.6848-43.5089,23.2928.2884.0481.5889.1082.8774.1683-12.6561-2.0072-25.5526-1.286-36.0331,2.0192-38.3648,12.8604-47.9778,46.9464-42.9778,82.619,1.678,9.441-2.5459,45.129,4.3575,53.9435,5.1025,6.5151,9.2871,5.6201,19.1638,6.8248,14.8056,1.8966,33.8635,9.521,48.9978,8.1846,1.3371-.1181,6.3822-1.0282,8.3097-4.8438,5.6178-11.121-8.4465-22.6214-10.6494-35.1553-3.149-10.6368,9.9998-13.281,13.4974-20.6967,2.7283-7.7523-6.99509-14.2547-7.7763-22.3675.3244-9.483,4.9079-13.7358,11.1777-13.8459,9.6869-.1703,15.82651-12.3677,15.82651-12.3677a14.69068,14.69068,0,0,1,4.33889-1.887c7.4038-1.8869,14.6993-3.4133,21.8867-4.7474a.08992.08992,0,0,0,.048-.0121c.0241,0,.0602-.012.1082-.012a.29944.29944,0,0,0,.09621-.012c28.02839-4.3869,64.20568-8.8581,86.59718-14.6152,14.5431-3.7379,24.567-6.2499,25.2761-6.2499.8293,0-1.0457,9.8917-4.1226,23.8578-1.3461,6.1177-2.9206,13.0046-4.6032,20.192,11.47652,3.0809,28.8323-4.2583,38.3472-5.187,6.7159-.6556,21.785,7.2012,27.8477,4.9607,3.5024-1.2943,7.1213-7.9947,7.5419-9.1725a95.19334,95.19334,0,0,0-2.2475-69.1457"/><path fill="none" stroke="#f45d4a" stroke-linecap="round" stroke-linejoin="round" stroke-width="3" d="M416.03379 668.0718c36.3506 4.8328 63.4997-47.9441 33.75321-71.6953M439.42979 731.0639c6.661-17.3218 41.5857-12.3953 37.9107 7.7702"/><path fill="none" stroke="#231f20" stroke-linecap="round" stroke-linejoin="round" stroke-width="3" d="M576.52689,591.3316c3.1009-3.1731,6.2018-6.3461,9.3388-9.471"/><path fill="none" stroke="#f45d4a" stroke-linecap="round" stroke-linejoin="round" stroke-width="3" d="M600.86908 573.0864c6.95592 6.394 25.9241 5.4546 35.9652-.5512 8.9144-5.3319 15.7852-17.5961 13.8735-30.5685M719.09968 586.6595c-12.6774 1.9291-18.3179 15.393-18.0515 23.2189.4134 12.1441 10.0593 21.0142 17.6381 21.5654"/><path fill="#fff" stroke="#231f20" stroke-linecap="round" stroke-linejoin="round" stroke-width="3" d="M528.15029,603.4468c-9.61529-8.0047-22.4276-12.9686-35.49229-15.0359"/></g><g><path fill="#231f20" stroke="#231f20" stroke-linecap="round" stroke-linejoin="round" stroke-width="3" d="M394.55539,486.7101c-4.4127-3.3474-9.9545-4.9199-14.4396-8.1697-3.31-2.3984-5.9686-5.6578-9.4763-7.7565-7.7217-4.6201-19.3028-2.4847-23.03749,6.9715a15.763,15.763,0,0,0,1.91729,15.1584c2.292,3.1393,5.3618,5.8321,7.8046,8.9089,4.24211,5.343,6.3914,14.2275-1.3641,17.6488a6.2875,6.2875,0,0,0-3.4251,3.7592c-1.8526,5.6611,6.1705,6.5223,7.8405,10.9866-2.3346.4844-5.355,2.1233-4.4725,4.3383.3454.8668,1.2191,1.3865,1.815,2.1044a3.68463,3.68463,0,0,1,.8137,2.2359,6.65048,6.65048,0,0,0,6.2122,6.2528c3.0637.2276,6.391.0571,9.2748.8917,7.6884,2.225,12.08361,11.8041,21.6615,9.4379a14.7094,14.7094,0,0,0,9.3676-7.7243c4.0057-7.7778,2.4254-16.503.82451-24.7524C403.948,517.0872,403.83769,492.8983,394.55539,486.7101Z"/><path fill="#fff" d="M386.51389,503.5179l17.0039-2.1393a59.7595,59.7595,0,0,1,10.54121-.6979,30.46376,30.46376,0,0,1,25.06539,16.2953,16.70059,16.70059,0,0,1,1.9458,6.2784c.4716,6.5092-6.2477,13.2466-12.1283,12.3547,6.5007.7541,10.779-6.4334,10.779-6.4334,2.7893,1.7534,11.9129,7.1186,10.3739,12.6953-.575,2.0832-2.3439,3.6007-4.0673,4.9047-6.9177,5.2342-16.5359,8.6654-24.1846,4.573-2.295-1.228-4.2518-3.0606-6.6514-4.0689a20.06172,20.06172,0,0,0-7.2626-1.1759c-7.1723-.1975-9.5958-.3745-16.6994.6351a48.17752,48.17752,0,0,1-10.6648-19.8419c-1.3012-4.844,2.5506-9.9014,3.8967-13.6394A32.48385,32.48385,0,0,0,386.51389,503.5179Z"/><path fill="none" stroke="#231f20" stroke-linecap="round" stroke-linejoin="round" stroke-width="3" d="M379.47359,530.5986c-1.12859-2.4282.3905-7.2259,1.1623-9.7899.914-3.0362,3.0837-5.5421,4.2365-8.4958.8967-2.2976,1.0797-6.2536,1.2867-8.7112.3307-3.9272-2.0118-11.265-11.0667-15.3241,1.1659.2352,12.1898,6.0917,11.0667,15.3241,1.6732-.2497,11.6908-1.51,17.3587-2.2231a59.7595,59.7595,0,0,1,10.54121-.6979,30.46376,30.46376,0,0,1,25.06539,16.2953,16.70059,16.70059,0,0,1,1.9458,6.2784c.4716,6.5092-6.2477,13.2466-12.1283,12.3547,6.5007.7541,10.779-6.4334,10.779-6.4334,2.7893,1.7534,11.9129,7.1186,10.3739,12.6953-.575,2.0832-2.3439,3.6007-4.0673,4.9047-6.9177,5.2342-16.5359,8.6654-24.1846,4.573-2.295-1.228-4.2518-3.0606-6.6514-4.0689a20.06172,20.06172,0,0,0-7.2626-1.1759,127.65163,127.65163,0,0,0-21.4648,1.2211"/></g><g><path fill="#fff" d="M464.001,278.5402c8.06879-1.6372,17.39849-2.0862,25.43589-.3011s16.4518,9.9174,17.35911,18.1005c14.51249-24.3325,44.49849-31.0859,72.77829-32.8004,32.39229-1.9639,80.18309,21.2254,86.57529,45.9809,2.023,7.8346-.046,17.2955-7.0819,21.2918,13.7287.0642,20.9394,5.364,28.3475,16.9226s4.5752,29.3402-5.2194,38.9604c-5.9963,5.8896-12.9922,11.3141-21.0685,13.3876-13.8034,3.5439-20.91328,3.9388-35.5159,4.9586l-10.6741.3537a102.28535,102.28535,0,0,1-26.33789-3.3695c-9.9772-2.7207-11.198-8.9186-20.508-24.1403,3.5458,7.1122,9.7105,25.041,9.19461,32.9713-.97651,15.0109-13.74221,35.4228-41.65371,43.7671-19.2962,5.7687-53.6008-2.1377-65.0027-14.2035-14.21159-15.0391-17.3455-34.3144-19.1727-44.1521-3.8235,2.8267-8.7816,6.2958-13.9893,9.8586-5.9963,4.1022-12.8224-3.8928-7.82759-9.1687,4.44619-4.6965,9.52409-9.3868,16.90959-16.0412-14.5437-18.4671-22.3309-43.0562-17.74559-68.2558,2.90509-15.9655,14.97969-25.9964,25.72079-30.934Z"/><path fill="none" stroke="#231f20" stroke-linecap="round" stroke-linejoin="round" stroke-width="3" d="M615.09818 405.9657a102.28507 102.28507 0 01-26.33779-3.3694c-9.9772-2.7208-11.1981-8.9186-20.5081-24.1404 3.5458 7.1122 9.7106 25.041 9.19471 32.9713-.97651 15.0109-13.74221 35.4229-41.65381 43.7671-19.2961 5.7687-53.6007-2.1376-65.0026-14.2035-14.21159-15.039-17.3455-34.3144-19.1727-44.1521-3.8235 2.8268-8.7816 6.2959-13.9893 9.8586-5.9963 4.1022-12.8224-3.8927-7.82759-9.1687 4.44619-4.6964 9.524-9.3867 16.90959-16.0411-14.5438-18.4672-22.3309-43.0563-17.74559-68.2558 2.90509-15.9655 14.97959-25.9964 25.72079-30.934M464.16189 279.1111c8.0689-1.6371 17.3986-2.0861 25.436-.3011s16.4518 9.9175 17.35911 18.1006c14.51249-24.3326 44.49849-31.0859 72.77829-32.8005 32.39229-1.9639 80.18309 21.2254 86.57519 45.9809 2.0231 7.8347-.0459 17.2956-7.0818 21.2919 13.7287.0642 26.1122 8.5632 29.1695 18.9581 3.8739 13.171 1.7532 30.3047-8.0414 39.9248-5.9963 5.8897-14.4194 8.6217-22.4956 10.6952-13.8034 3.5439-17.4863 3.6313-32.0888 4.651"/><path fill="#fff" stroke="#231f20" stroke-linecap="round" stroke-linejoin="round" stroke-width="3" d="M402.75519 425.5592a8.13555 8.13555 0 008.5585 11.5022 4.21271 4.21271 0 001.9548-.7316 5.13166 5.13166 0 001.3129-1.7394 14.83161 14.83161 0 001.9554-6.4305 7.84658 7.84658 0 00-2.3915-6.1143 8.31843 8.31843 0 00-5.7446-1.8308 5.24783 5.24783 0 00-2.5893.6224M399.26289 461.8524a11.08465 11.08465 0 004.2483 3.9846 3.95187 3.95187 0 004.1484-.6933 4.7792 4.7792 0 001.081-2.9516 8.07213 8.07213 0 00-1.8464-6.2956 4.49208 4.49208 0 00-6.1044-.6616C398.72829 456.8078 398.64529 460.6556 399.26289 461.8524z"/></g><g data-name="z z z"><path fill="none" stroke="#231f20" stroke-linecap="round" stroke-linejoin="round" stroke-width="3" d="M549.60439 488.2835q.00525-2.45175.0104-4.9034a39.77533 39.77533 0 0014.22921-1.5676 160.11788 160.11788 0 00-8.25221 18.7872c.8593-2.6293 3.7385-4.0521 6.4633-4.5286s5.566-.3053 8.2075-1.1263 5.1667-3.097 4.9768-5.8566M457.68339 477.7495a4.79657 4.79657 0 012.9943-6.2227 20.10488 20.10488 0 013.91931-.2512c2.46079-.1867 5.014-1.792 5.40089-4.2293-.8534-.0782-1.3437.9274-1.5837 1.7501l-5.4627 18.7293c.32951-1.8183 2.3039-2.8624 4.13151-3.136s3.73719-.0591 5.493-.6355 3.34739-2.3967 2.75449-4.1469M580.31579 452.2321c-1.9032-2.9475.49421-7.0621 3.7045-8.4778s6.8753-1.0748 10.37689-1.2962a31.47287 31.47287 0 0014.80382-4.8134c-2.62522-.2799-4.71592 2.0733-6.20362 4.2542A88.767 88.767 0 00590.029 471.2006c1.63189-6.6052 10.11648-8.6959 16.87478-7.9102 3.4213.3977 6.9553 1.1948 10.2445.1729s6.0432-4.7929 4.51772-7.8809"/></g><g><path fill="#fff" stroke="#231f20" stroke-linecap="round" stroke-linejoin="round" stroke-width="3" d="M575.84259,336.4821a1.65336,1.65336,0,0,1-.1359.487c-2.8042,6.661-47.8601,8.3683-66.0361,7.1413,7.9267-5.87,33.3385-27.5753,38.6107-30.7568a12.97544,12.97544,0,0,1,5.4464-1.8487l.0019-.0085a15.39714,15.39714,0,0,1,9.9991,2.8386,27.133,27.133,0,0,1,6.0874,5.6824,30.355,30.355,0,0,1,5.0658,9.2455,18.59476,18.59476,0,0,1,1.0282,5.9228A9.846,9.846,0,0,1,575.84259,336.4821Z"/><path fill="#fff" stroke="#231f20" stroke-linecap="round" stroke-linejoin="round" stroke-width="3" d="M576.50869,366.476c-5.596.4858-20.4011.4603-27.1618.6494-12.0313.3374-24.9918,3.2681-36.927,4.8493.821-8.7203.5338-19.7411-2.7493-27.8643,18.6076,1.2523,65.3822-.5605,66.172-7.6283C575.89149,336.0648,580.82029,349.3837,576.50869,366.476Z"/><path fill="none" stroke="#231f20" stroke-linecap="round" stroke-linejoin="round" stroke-width="3" d="M563.72869,314.335a15.39714,15.39714,0,0,0-9.9991-2.8386c.9158-2.5338,5.1811-5.6019,7.5946-4.4276C563.70369,308.2355,564.50629,311.9396,563.72869,314.335Z"/><path fill="#fff" stroke="#231f20" stroke-linecap="round" stroke-linejoin="round" stroke-width="3" d="M571.89849 315.1041c-.5521 1.9462-1.3598 4.2366-2.0824 4.9133a27.133 27.133 0 00-6.0874-5.6824 8.05966 8.05966 0 015.9777-2.2293A2.35876 2.35876 0 01571.89849 315.1041zM574.88189 329.2629a30.355 30.355 0 00-5.0658-9.2455c2.7433-1.1339 8.1208-.3661 8.5666 1.7056C578.97939 324.4353 575.86469 328.3411 574.88189 329.2629z"/><path fill="#fff" stroke="#231f20" stroke-linecap="round" stroke-linejoin="round" stroke-width="3" d="M580.42649,335.3769c-1.2913.7456-2.9713.7974-4.7198,1.5922a1.65336,1.65336,0,0,0,.1359-.487,9.846,9.846,0,0,0,.0675-1.2964,18.59476,18.59476,0,0,0-1.0282-5.9228l5.0483,2.1573A2.15939,2.15939,0,0,1,580.42649,335.3769Z"/><path fill="none" stroke="#231f20" stroke-linecap="round" stroke-linejoin="round" stroke-width="3" d="M512.58219,357.7741c8.7201,3.0825,20.3693-1.484,29.5465-2.6331,12.8467-1.6086,23.2204-2.1679,36.115-1.0043"/><path fill="#f45d4a" stroke="#231f20" stroke-linecap="round" stroke-linejoin="round" stroke-width="3" d="M551.03839,333.1006a8.84258,8.84258,0,0,1-11.5461,1.5168c-3.4764-2.4832-3.9316-6.6627.3973-8.8599,3.1815-1.6157,5.845.712,6.291,4.2559.9965-1.1417,2.5077-3.9437,3.9099-3.3529a3.74433,3.74433,0,0,1,2.2164,3.6462A5.12621,5.12621,0,0,1,551.03839,333.1006Z"/><path fill="none" stroke="#231f20" stroke-linecap="round" stroke-linejoin="round" stroke-width="3" d="M534.993,304.2106c8.44739,3.9897,13.54479,16.7576,11.18759,25.8028"/></g></svg>